<svg xmlns="http://www.w3.org/2000/svg" version="1.1" xmlns:xlink="http://www.w3.org/1999/xlink" xmlns:svgjs="http://svgjs.dev/svgjs" width="1000" height="1000" viewBox="0 0 1000 1000"><rect width="1000" height="1000" fill="#ffffff"></rect><g transform="matrix(0.7,0,0,0.7,150.11896067415722,403.90517857142856)"><svg viewBox="0 0 356 98" data-background-color="#010536" preserveAspectRatio="xMidYMid meet" height="275" width="1000" xmlns="http://www.w3.org/2000/svg" xmlns:xlink="http://www.w3.org/1999/xlink"><g id="tight-bounds" transform="matrix(1,0,0,1,-0.06049999999996203,-0.07900000000000773)"><svg viewBox="0 0 356.12052 98.15798446601943" height="98.15798446601943" width="356.12052"><g><svg viewBox="0 0 356.12052 98.15798446601943" height="98.15798446601943" width="356.12052"><g><svg viewBox="0 0 356.12052 98.15798446601943" height="98.15798446601943" width="356.12052"><g><path d="M0 98.158v-98.158h356.121v98.158z" fill="#000000" stroke="transparent" stroke-width="0" rx="0%" data-fill-palette-color="tertiary"></path><path d="M3.283 94.875v-91.592h349.554v91.592z" fill="#ffffff" stroke="transparent" stroke-width="0" rx="0%" data-fill-palette-color="quaternary"></path><path d="M9.85 88.308v-78.458h336.421v78.458z" fill="#000000" stroke="transparent" stroke-width="0" data-fill-palette-color="tertiary"></path></g><g transform="matrix(1,0,0,1,19.69974,19.69974)" id="textblocktransform"><svg viewBox="0 0 316.72104 58.758504466019424" height="58.758504466019424" width="316.72104" id="textblock"><g><svg viewBox="0 0 316.72104 58.758504466019424" height="58.758504466019424" width="316.72104"><g transform="matrix(1,0,0,1,0,0)"><svg width="316.72104" viewBox="2.1500000953674316 -33.75 236.8800048828125 43.95000076293945" height="58.758504466019424" data-palette-color="#010536"><path d="M26.05-9.05Q26.05-6.7 24.98-5.03 23.9-3.35 21.45-1.95L21.45-1.95Q19.8-0.95 17.6-0.45 15.4 0.05 13.15 0.05L13.15 0.05Q10.85 0.05 7.45-1.45L7.45-1.45Q5-2.65 3.58-4.3 2.15-5.95 2.15-7.9L2.15-7.9Q2.15-9.25 2.75-9.88 3.35-10.5 4.7-10.5L4.7-10.5Q5.4-10.5 6.15-9.93 6.9-9.35 7.05-8.8L7.05-8.8Q7.75-6.75 9.5-5.68 11.25-4.6 13.85-4.6L13.85-4.6Q16.85-4.6 18.88-5.7 20.9-6.8 20.9-8.65L20.9-8.65Q20.9-10.45 18.7-11.85 16.5-13.25 14.2-13.8L14.2-13.8Q10.9-14.7 8.35-15.95L8.35-15.95Q5.7-17.25 4.4-19.15 3.1-21.05 3.1-23.15L3.1-23.15Q3.1-25.1 4.45-27.13 5.8-29.15 7.65-30.05L7.65-30.05Q8.65-30.55 11.08-31.13 13.5-31.7 14.6-31.7L14.6-31.7Q16.05-31.7 17.8-31.35 19.55-31 20.65-30.35L20.65-30.35Q22.85-29.1 23.9-28.1 24.95-27.1 24.95-25.6L24.95-25.6Q24.95-24.7 24.28-24 23.6-23.3 21.95-23.3L21.95-23.3Q21.55-23.3 21.15-23.65 20.75-24 20.15-24.7L20.15-24.7Q19.35-25.75 18.6-26.1L18.6-26.1Q17.85-26.35 16.43-26.65 15-26.95 13.9-26.95L13.9-26.95Q12.7-26.95 11.4-26.45 10.1-25.95 9.22-25.03 8.35-24.1 8.35-22.9L8.35-22.9Q8.35-21.9 9.28-21.18 10.2-20.45 11.5-20L11.5-20Q13-19.4 14.75-18.95L14.75-18.95Q17.05-18.25 18.53-17.68 20-17.1 21.4-16.25L21.4-16.25Q23.85-14.8 24.95-13.28 26.05-11.75 26.05-9.05L26.05-9.05ZM33.15-17.1L30.75-17.3Q30.05-17.4 29.62-17.9 29.2-18.4 29.2-19.1L29.2-19.1Q29.2-19.45 29.37-19.85 29.55-20.25 29.9-20.55L29.9-20.55Q30.55-21.2 33.4-21.2L33.4-21.2Q33.8-23.15 33.8-25.15L33.8-25.15Q33.8-25.9 33.75-26.45 33.7-27 33.7-27.3L33.7-27.3Q33.7-28.4 34.52-28.95 35.35-29.5 36.4-29.5L36.4-29.5Q37.7-29.5 38.17-28.85 38.65-28.2 38.65-26.45L38.65-26.45Q38.65-23.85 38.2-21.35L38.2-21.35Q39-21.35 40.4-21.45L40.4-21.45Q42.3-21.55 43.15-21.55L43.15-21.55Q44-21.55 44.62-21.13 45.25-20.7 45.25-19.95L45.25-19.95Q45.25-18 43.5-17.65L43.5-17.65Q41.65-17.2 37.75-17.1L37.75-17.1Q37.6-15.15 37.6-12.85L37.6-12.85Q37.6-9.25 38.05-6.95L38.05-6.95Q38.35-5.35 39.07-4.63 39.8-3.9 41.25-3.9L41.25-3.9Q42.1-3.9 43-4.35L43-4.35Q43.6-4.7 44.1-4.7L44.1-4.7Q44.8-4.7 45.12-4.25 45.45-3.8 45.45-3.05L45.45-3.05Q45.45-1.65 43.95-0.73 42.45 0.2 40.1 0.2L40.1 0.2Q38.65 0.2 37.17-0.5 35.7-1.2 34.7-2.25L34.7-2.25Q34.55-2.4 34.15-3.4 33.75-4.4 33.45-5.55L33.45-5.55Q32.95-7.9 32.95-12.15L32.95-12.15Q32.95-14 33.15-17.1L33.15-17.1ZM69.34-16.05Q69.75-15.35 70-14.03 70.25-12.7 70.25-11.65L70.25-11.65Q70.25-9.7 69.4-6.1L69.4-6.1Q65.95 0.2 59.2 0.2L59.2 0.2Q56.7 0.2 54.1-1.45 51.5-3.1 50.5-5.25L50.5-5.25Q49.15-9.55 49.15-10.7L49.15-10.7Q49.15-12.7 50.02-14.95 50.9-17.2 52.25-18.85L52.25-18.85Q53.1-20 55.3-20.83 57.5-21.65 59.3-21.65L59.3-21.65Q62.8-21.65 65.25-20.33 67.7-19 69.34-16.05L69.34-16.05ZM65-8Q65.25-8.65 65.25-11.35L65.25-11.35Q65.25-12.8 64.72-14.2 64.2-15.6 63.2-16.6L63.2-16.6Q63.09-16.7 62.65-16.93 62.2-17.15 61.42-17.38 60.65-17.6 59.65-17.6L59.65-17.6Q56.85-17.6 55.55-15.35 54.25-13.1 54.25-10.25L54.25-10.25Q54.25-9.75 54.52-8.35 54.8-6.95 55-6.6L55-6.6Q55.15-6.25 55.77-5.63 56.4-5 57.32-4.53 58.25-4.05 59.25-4.05L59.25-4.05Q61.5-4.05 62.85-5.13 64.2-6.2 65-8L65-8ZM82.54-2Q82.54-1.15 81.89-0.5 81.24 0.15 80.29 0.15L80.29 0.15Q78.79 0.15 78.09-0.43 77.39-1 77.39-2.55L77.39-2.55Q77.39-4.4 77.29-7.4L77.29-7.4Q77.19-9.9 77.19-11.6L77.19-11.6Q77.19-12.4 77.29-13.7L77.29-13.7Q77.39-14.9 77.39-15.5L77.39-15.5Q77.24-16.45 76.64-17.07 76.04-17.7 75.09-17.7L75.09-17.7Q74.64-17.7 74.34-18.13 74.04-18.55 74.04-19L74.04-19Q74.04-20.15 74.97-20.75 75.89-21.35 77.19-21.35L77.19-21.35Q79.89-21.35 80.94-18.15L80.94-18.15Q82.24-19.65 83.92-20.58 85.59-21.5 87.14-21.5L87.14-21.5Q88.99-21.5 90.52-20.5 92.04-19.5 92.04-17.8L92.04-17.8Q92.04-16.85 91.22-15.85 90.39-14.85 89.54-14.85L89.54-14.85Q89.09-14.85 88.77-15.08 88.44-15.3 87.99-15.75L87.99-15.75Q87.49-16.25 87.14-16.48 86.79-16.7 86.34-16.7L86.34-16.7Q85.54-16.7 84.84-16.45 84.14-16.2 83.89-15.85L83.89-15.85Q83.09-14.6 82.72-13.6 82.34-12.6 82.34-11.45L82.34-11.45Q82.34-10.6 82.29-10.1L82.29-10.1 82.24-7.25Q82.24-6.6 82.29-5.8 82.34-5 82.39-4.6L82.39-4.6Q82.54-3.25 82.54-2L82.54-2ZM100.44 10.2Q98.54 10.2 97.27 9.58 95.99 8.95 95.37 8.08 94.74 7.2 94.74 6.55L94.74 6.55Q94.74 5.7 95.34 5.23 95.94 4.75 96.79 4.75L96.79 4.75Q97.29 4.75 97.74 5.05 98.19 5.35 98.24 5.4L98.24 5.4Q98.59 5.65 98.94 5.83 99.29 6 99.69 6L99.69 6Q100.79 6 101.49 4.55 102.19 3.1 102.89-0.15L102.89-0.15Q100.64-3.45 99.14-6.75L99.14-6.75 97.99-9.4Q97.74-10 96.62-12.53 95.49-15.05 94.39-17L94.39-17Q93.69-18.4 93.69-18.9L93.69-18.9Q93.69-20.15 94.56-20.75 95.44-21.35 96.59-21.35L96.59-21.35Q97.39-21.35 97.81-21.03 98.24-20.7 98.79-19.85L98.79-19.85Q100.24-17.45 101.94-12.65L101.94-12.65Q102.94-9.9 103.54-8.47 104.14-7.05 104.99-5.6L104.99-5.6Q105.84-7.55 107.14-12.25L107.14-12.25Q107.94-14.95 108.47-16.57 108.99-18.2 109.64-19.55L109.64-19.55Q110.09-20.45 110.77-21 111.44-21.55 112.29-21.55L112.29-21.55Q113.14-21.55 114.12-20.93 115.09-20.3 115.09-19.45L115.09-19.45Q115.09-18.95 114.74-18.25L114.74-18.25Q112.79-13.75 111.31-9.78 109.84-5.8 108.49-1.05L108.49-1.05Q107.69 1.6 106.81 4 105.94 6.4 105.59 6.95L105.59 6.95Q104.59 8.35 103.34 9.28 102.09 10.2 100.44 10.2L100.44 10.2ZM119.64-9Q119.64-11.8 119.69-13.25L119.69-13.25 119.74-18Q119.74-20.9 119.59-24.35L119.59-24.35Q119.54-25.4 119.24-27.25L119.24-27.25Q118.84-30.05 118.84-31.45L118.84-31.45Q118.84-33.75 121.14-33.75L121.14-33.75Q122.59-33.75 123.21-32.98 123.84-32.2 124.09-30.55L124.09-30.55Q124.59-27.1 124.59-22.45L124.59-22.45Q124.59-21.05 124.49-18.25L124.49-18.25Q125.44-19.75 126.96-20.6 128.49-21.45 129.99-21.45L129.99-21.45Q134.34-21.45 137.49-17.85L137.49-17.85Q138.34-16.6 139.01-14.88 139.69-13.15 139.69-11.9L139.69-11.9Q139.69-9.7 139.21-7.85 138.74-6 137.54-4.25L137.54-4.25Q136.34-2.5 134.51-1.4 132.69-0.3 130.29-0.3L130.29-0.3Q128.19-0.3 126.51-1.15 124.84-2 123.84-3.4L123.84-3.4Q123.59-2.15 122.74-0.93 121.89 0.3 120.79 0.3L120.79 0.3Q119.89 0.3 119.29-0.18 118.69-0.65 118.69-1.6L118.69-1.6Q118.69-2.3 118.99-3.35L118.99-3.35Q119.29-4.8 119.46-6.03 119.64-7.25 119.64-9L119.64-9ZM129.04-4.45Q131.49-4.45 133.14-6.18 134.79-7.9 134.79-10.85L134.79-10.85Q134.79-13.55 133.34-15.5L133.34-15.5Q132.84-16.15 131.91-16.55 130.99-16.95 130.09-16.95L130.09-16.95Q127.99-16.95 126.54-15.73 125.09-14.5 124.89-12.35L124.89-12.35Q124.69-9.45 124.69-7.35L124.69-7.35Q125.29-6.2 126.51-5.33 127.74-4.45 129.04-4.45L129.04-4.45ZM164.24-16.05Q164.64-15.35 164.89-14.03 165.14-12.7 165.14-11.65L165.14-11.65Q165.14-9.7 164.29-6.1L164.29-6.1Q160.84 0.2 154.09 0.2L154.09 0.2Q151.59 0.2 148.99-1.45 146.39-3.1 145.39-5.25L145.39-5.25Q144.04-9.55 144.04-10.7L144.04-10.7Q144.04-12.7 144.91-14.95 145.79-17.2 147.14-18.85L147.14-18.85Q147.99-20 150.19-20.83 152.39-21.65 154.19-21.65L154.19-21.65Q157.69-21.65 160.14-20.33 162.59-19 164.24-16.05L164.24-16.05ZM159.89-8Q160.14-8.65 160.14-11.35L160.14-11.35Q160.14-12.8 159.61-14.2 159.09-15.6 158.09-16.6L158.09-16.6Q157.99-16.7 157.54-16.93 157.09-17.15 156.31-17.38 155.54-17.6 154.54-17.6L154.54-17.6Q151.74-17.6 150.44-15.35 149.14-13.1 149.14-10.25L149.14-10.25Q149.14-9.75 149.41-8.35 149.69-6.95 149.89-6.6L149.89-6.6Q150.04-6.25 150.66-5.63 151.29-5 152.21-4.53 153.14-4.05 154.14-4.05L154.14-4.05Q156.39-4.05 157.74-5.13 159.09-6.2 159.89-8L159.89-8ZM189.83-16.05Q190.23-15.35 190.48-14.03 190.73-12.7 190.73-11.65L190.73-11.65Q190.73-9.7 189.88-6.1L189.88-6.1Q186.43 0.2 179.68 0.2L179.68 0.2Q177.18 0.2 174.58-1.45 171.98-3.1 170.98-5.25L170.98-5.25Q169.63-9.55 169.63-10.7L169.63-10.7Q169.63-12.7 170.51-14.95 171.38-17.2 172.73-18.85L172.73-18.85Q173.58-20 175.78-20.83 177.98-21.65 179.78-21.65L179.78-21.65Q183.28-21.65 185.73-20.33 188.18-19 189.83-16.05L189.83-16.05ZM185.48-8Q185.73-8.65 185.73-11.35L185.73-11.35Q185.73-12.8 185.21-14.2 184.68-15.6 183.68-16.6L183.68-16.6Q183.58-16.7 183.13-16.93 182.68-17.15 181.91-17.38 181.13-17.6 180.13-17.6L180.13-17.6Q177.33-17.6 176.03-15.35 174.73-13.1 174.73-10.25L174.73-10.25Q174.73-9.75 175.01-8.35 175.28-6.95 175.48-6.6L175.48-6.6Q175.63-6.25 176.26-5.63 176.88-5 177.81-4.53 178.73-4.05 179.73-4.05L179.73-4.05Q181.98-4.05 183.33-5.13 184.68-6.2 185.48-8L185.48-8ZM199.48 0.2Q198.48 0.2 197.78-0.15 197.08-0.5 196.93-0.9L196.93-0.9Q196.38-2.9 196.38-6.15L196.38-6.15Q196.38-12.15 196.58-15.9L196.58-15.9Q196.78-20.35 196.78-24.45L196.78-24.45Q196.78-25.65 196.48-27.95L196.48-27.95Q196.43-28.35 196.33-29.4 196.23-30.45 196.23-31.35L196.23-31.35Q196.23-32.45 197.01-33.1 197.78-33.75 199.03-33.75L199.03-33.75Q200.03-33.75 200.66-33.13 201.28-32.5 201.28-31.45L201.28-31.45Q201.28-29.85 201.38-26.95L201.38-26.95Q201.48-24.25 201.48-22.9L201.48-22.9Q201.48-21.4 201.38-18.9L201.38-18.9Q201.28-17.4 201.28-16.7L201.28-16.7Q201.28-14.5 201.33-13.05L201.33-13.05Q203.18-14.9 206.18-17.4 209.18-19.9 210.83-20.9L210.83-20.9Q212.58-21.95 213.13-21.95L213.13-21.95Q214.18-21.95 214.93-21.5 215.68-21.05 215.68-20.2L215.68-20.2Q215.68-19.35 215.43-18.85 215.18-18.35 214.53-17.85L214.53-17.85 208.08-13.15Q209.18-12.6 209.96-11.75 210.73-10.9 211.53-9.65L211.53-9.65Q213.23-6.85 214.26-5.55 215.28-4.25 216.13-4.25L216.13-4.25 217.38-4.3Q217.73-4.3 218.01-3.9 218.28-3.5 218.28-2.75L218.28-2.75Q218.28-1.6 217.16-0.9 216.03-0.2 214.63-0.2L214.63-0.2Q212.68-0.2 211.18-1.73 209.68-3.25 208.33-5.85L208.33-5.85Q206.38-9.55 204.48-10.25L204.48-10.25 201.28-7.65 201.48-2.2Q201.48-0.9 200.81-0.35 200.13 0.2 199.48 0.2L199.48 0.2ZM235.48-11.25Q235.88-11 237.05-10.33 238.23-9.65 238.63-8.75 239.03-7.85 239.03-6.25L239.03-6.25Q239.03-4.45 237.98-3.08 236.93-1.7 235.28-0.95L235.28-0.95Q234.08-0.4 232.35-0.1 230.63 0.2 229.63 0.2L229.63 0.2Q228.63 0.2 227.05-0.1 225.48-0.4 224.88-0.65L224.88-0.65Q223.33-1.55 222.2-2.85 221.08-4.15 221.08-5.5L221.08-5.5Q221.08-6.5 221.73-7.08 222.38-7.65 223.43-7.65L223.43-7.65Q223.93-7.65 224.48-7.28 225.03-6.9 225.23-6.5L225.23-6.5Q225.78-5.2 227.08-4.55 228.38-3.9 229.73-3.9L229.73-3.9Q231.48-3.9 232.98-4.48 234.48-5.05 234.48-6.05L234.48-6.05Q234.48-6.5 234.25-6.78 234.03-7.05 233.63-7.35L233.63-7.35Q232.93-7.85 231.53-8.18 230.13-8.5 229.73-8.6L229.73-8.6Q227.68-9.05 225.73-9.95L225.73-9.95Q223.78-10.9 222.63-12.2 221.48-13.5 221.48-15.55L221.48-15.55Q221.48-16.9 222.48-18.38 223.48-19.85 224.73-20.45L224.73-20.45Q225.63-20.8 227.75-21.2 229.88-21.6 230.63-21.6L230.63-21.6Q231.78-21.6 233.13-21.38 234.48-21.15 235.18-20.65L235.18-20.65Q236.53-19.85 237.38-18.98 238.23-18.1 238.23-17L238.23-17Q238.23-16.45 237.98-15.83 237.73-15.2 237.38-15.05L237.38-15.05Q236.63-14.7 235.63-14.7L235.63-14.7Q235.18-14.7 234.9-14.95 234.63-15.2 234.18-15.75L234.18-15.75Q233.63-16.6 233.13-16.75L233.13-16.75Q232.53-16.9 231.38-17.13 230.23-17.35 229.83-17.35L229.83-17.35Q228.68-17.35 227.45-16.7 226.23-16.05 226.23-15.2L226.23-15.2Q226.23-14.75 226.6-14.5 226.98-14.25 227.4-14.05 227.83-13.85 227.98-13.8L227.98-13.8Q229.03-13.3 230.3-12.95 231.58-12.6 231.88-12.5L231.88-12.5Q234.58-11.85 235.48-11.25L235.48-11.25Z" opacity="1" transform="matrix(1,0,0,1,0,0)" fill="#ffffff" class="wordmark-text-0" data-fill-palette-color="quaternary" id="text-0"></path></svg></g></svg></g></svg></g></svg></g><g></g></svg></g><defs></defs></svg><rect width="356.12052" height="98.15798446601943" fill="none" stroke="none" visibility="hidden"></rect></g></svg></g></svg>