<svg xmlns="http://www.w3.org/2000/svg" version="1.1" xmlns:xlink="http://www.w3.org/1999/xlink" xmlns:svgjs="http://svgjs.dev/svgjs" width="1000" height="1000" viewBox="0 0 1000 1000"><rect width="1000" height="1000" fill="#333366"></rect><g transform="matrix(0.7,0,0,0.7,150,281.25)"><svg viewBox="0 0 512 320" data-background-color="#333366" preserveAspectRatio="xMidYMid meet" height="625" width="1000" xmlns="http://www.w3.org/2000/svg" xmlns:xlink="http://www.w3.org/1999/xlink"><g id="tight-bounds" transform="matrix(1,0,0,1,0,0)"><svg viewBox="0 0 512 320" height="320" width="512"><g><svg></svg></g><g><svg viewBox="0 0 512 320" height="320" width="512"><g><path xmlns="http://www.w3.org/2000/svg" d="M96 160c0-88.366 71.634-160 160-160 88.366 0 160 71.634 160 160 0 88.366-71.634 160-160 160-88.366 0-160-71.634-160-160zM256 310.874c83.325 0 150.874-67.548 150.874-150.874 0-83.325-67.548-150.874-150.874-150.874-83.325 0-150.874 67.548-150.874 150.874 0 83.325 67.548 150.874 150.874 150.874z" fill="#ffffff" fill-rule="nonzero" stroke="none" stroke-width="1" stroke-linecap="butt" stroke-linejoin="miter" stroke-miterlimit="10" stroke-dasharray="" stroke-dashoffset="0" font-family="none" font-weight="none" font-size="none" text-anchor="none" style="mix-blend-mode: normal" data-fill-palette-color="tertiary"></path></g><g transform="matrix(1,0,0,1,128,125.03564920100192)"><svg viewBox="0 0 255.99999999999997 69.92870159799615" height="69.92870159799615" width="255.99999999999997"><g><svg viewBox="0 0 255.99999999999997 69.92870159799615" height="69.92870159799615" width="255.99999999999997"><g><svg viewBox="0 0 362.4946378280788 99.01866937325552" height="69.92870159799615" width="255.99999999999997"><g transform="matrix(1,0,0,1,106.49463782807878,13.684924638416646)"><svg viewBox="0 0 256 71.64882009642223" height="71.64882009642223" width="256"><g id="textblocktransform"><svg viewBox="0 0 256 71.64882009642223" height="71.64882009642223" width="256" id="textblock"><g><svg viewBox="0 0 256 71.64882009642223" height="71.64882009642223" width="256"><g transform="matrix(1,0,0,1,0,0)"><svg width="256" viewBox="0.10000000149011612 -35.20000076293945 197.02999877929688 55.150001525878906" height="71.64882009642223" data-palette-color="#ffffff"><path d="M8 0.5Q5.6 0.5 3.83-0.4 2.05-1.3 1.13-2.63 0.2-3.95 0.1-5.25L0.1-5.25Q0.1-6.5 0.83-7.98 1.55-9.45 2.55-10.5 3.55-11.55 4.1-11.55L4.1-11.55Q4.35-11.55 4.45-10.95L4.45-10.95Q4.85-7.9 5.28-6.33 5.7-4.75 6.68-3.93 7.65-3.1 9.6-3.1L9.6-3.1Q12.3-3.1 13.68-4.5 15.05-5.9 15.05-8.3L15.05-8.3Q15.05-9.9 14.45-11.1 13.85-12.3 12.3-14.25L12.3-14.25 7.55-19.85Q6.45-21.15 6.03-22.28 5.6-23.4 5.6-24.8L5.6-24.8Q5.6-27.4 6.9-29.8 8.2-32.2 10.73-33.7 13.25-35.2 16.75-35.2L16.75-35.2Q19.7-35.2 21.38-34.05 23.05-32.9 23.05-30.8L23.05-30.8Q23.05-29.95 22.8-29.13 22.55-28.3 22.15-27.65L22.15-27.65Q21.6-26.8 21.18-26.45 20.75-26.1 20.25-26.1L20.25-26.1Q19.7-26.1 19.5-26.58 19.3-27.05 19.2-27.9L19.2-27.9Q19.05-29.8 18.18-30.83 17.3-31.85 15.15-31.85L15.15-31.85Q12.9-31.85 11.65-30.73 10.4-29.6 10.4-27.8L10.4-27.8Q10.4-26.75 10.8-25.88 11.2-25 12.05-24L12.05-24 16.85-18.5Q18.6-16.55 19.4-14.75 20.2-12.95 20.2-10.95L20.2-10.95Q20.2-7.95 18.5-5.3 16.8-2.65 13.98-1.07 11.15 0.5 8 0.5L8 0.5ZM29.35 0.5Q27.7 0.5 26.9-0.55 26.1-1.6 26.1-3.9L26.1-3.9Q26.1-5.35 26.5-7.75L26.5-7.75 28.55-19.45 24.5-19.45Q23.95-19.45 23.72-19.58 23.5-19.7 23.5-19.95L23.5-19.95Q23.5-20.4 24.15-21.2 24.8-22 25.62-22.65 26.45-23.3 27-23.3L27-23.3 29.3-23.3 29.7-25.9Q30.05-27.75 31.77-29.2 33.5-30.65 35.15-30.65L35.15-30.65Q35.55-30.65 35.8-30.5 36.05-30.35 36.05-30.05L36.05-30.05Q36.05-29.85 35.55-28.98 35.05-28.1 34.8-26.55L34.8-26.55 34.25-23.3 38.5-23.3Q39.1-23.3 39.3-23.23 39.5-23.15 39.5-22.9L39.5-22.9Q39.5-22.4 38.8-21.58 38.1-20.75 37.2-20.1 36.3-19.45 35.85-19.45L35.85-19.45 33.6-19.45 31.6-7.55Q31.25-5.8 31.25-4.85L31.25-4.85Q31.25-4.15 31.47-3.88 31.7-3.6 32.15-3.6L32.15-3.6Q33.8-3.6 35.25-6.3L35.25-6.3Q35.4-6.65 35.55-6.83 35.7-7 35.9-7L35.9-7Q36.4-7 36.4-6.15L36.4-6.15Q36.4-4.85 35.4-3.28 34.4-1.7 32.77-0.6 31.15 0.5 29.35 0.5L29.35 0.5ZM43.95 0.5Q41.59 0.5 40.25-1.23 38.9-2.95 38.9-6.2L38.9-6.2Q38.9-10.25 40.92-14.35 42.95-18.45 46.02-21.13 49.09-23.8 52-23.8L52-23.8Q54.34-23.8 55.65-22.05 56.95-20.3 56.95-17.15L56.95-17.15Q56.95-13.3 55.02-9.15 53.09-5 50.07-2.25 47.05 0.5 43.95 0.5L43.95 0.5ZM46.65-3.85Q48.05-3.85 49.2-5.33 50.34-6.8 51-9.3 51.65-11.8 51.65-14.75L51.65-14.75Q51.65-17.25 51.09-18.35 50.55-19.45 49.4-19.45L49.4-19.45Q48.05-19.45 46.87-18.07 45.7-16.7 44.97-14.3 44.25-11.9 44.25-8.95L44.25-8.95Q44.25-3.85 46.65-3.85L46.65-3.85ZM60.99 0.5Q60.14 0.5 60.14-0.1L60.14-0.1Q60.14-0.35 60.52-1.23 60.89-2.1 61.24-3.95L61.24-3.95 62.09-8.75Q63.44-16.45 63.49-17.75L63.49-17.75 63.49-18.2Q63.49-19.05 63.04-19.05L63.04-19.05Q62.09-19.05 60.44-16L60.44-16Q60.24-15.6 59.99-15.28 59.74-14.95 59.49-14.95L59.49-14.95Q58.99-14.95 58.99-15.8L58.99-15.8Q58.99-17.1 60.17-19.03 61.34-20.95 63.07-22.38 64.79-23.8 66.39-23.8L66.39-23.8Q68.54-23.8 68.54-20.95L68.54-20.95Q68.54-20.35 68.14-16.75L68.14-16.75 68.19-16.75Q70.29-20.45 72.17-22.13 74.04-23.8 75.94-23.8L75.94-23.8Q77.24-23.8 78.04-23.05 78.84-22.3 78.84-20.9L78.84-20.9Q78.84-19.55 78.22-18.25 77.59-16.95 76.69-16.13 75.79-15.3 75.14-15.3L75.14-15.3Q74.74-15.3 74.89-15.8L74.89-15.8Q75.04-16.5 75.04-17.1L75.04-17.1Q75.04-18.4 73.89-18.4L73.89-18.4Q71.99-18.4 70.12-15.8 68.24-13.2 67.19-8.3L67.19-8.3Q66.44-5.2 66.19-3.45L66.19-3.45Q65.94-2.05 64.22-0.78 62.49 0.5 60.99 0.5L60.99 0.5ZM81.54 19.95Q79.34 19.95 77.79 18.85 76.24 17.75 75.49 16.13 74.74 14.5 74.74 12.9L74.74 12.9Q74.74 11.2 75.56 9.95 76.39 8.7 77.42 8.08 78.44 7.45 78.94 7.45L78.94 7.45Q79.14 7.45 79.24 7.6 79.34 7.75 79.34 8.25L79.34 8.25Q79.39 12.25 80.37 14 81.34 15.75 83.99 15.75L83.99 15.75Q88.04 15.75 89.94 11.65L89.94 11.65Q90.39 10.65 90.67 9.5 90.94 8.35 91.64 5.1L91.64 5.1 92.79-0.5 93.79-5.2 93.69-5.2Q91.79-2.5 90.04-1 88.29 0.5 86.94 0.5L86.94 0.5Q84.19 0.5 84.29-5.85L84.29-5.85 84.59-17.25Q84.64-18.5 84.47-18.95 84.29-19.4 83.79-19.4L83.79-19.4Q83.29-19.4 82.87-18.93 82.44-18.45 81.79-17.35L81.79-17.35Q81.29-16.55 81.09-16.28 80.89-16 80.59-16L80.59-16Q80.29-16 80.19-16.18 80.09-16.35 80.09-16.8L80.09-16.8Q80.09-18.2 81.06-19.88 82.04-21.55 83.56-22.68 85.09-23.8 86.64-23.8L86.64-23.8Q88.24-23.8 88.89-22.48 89.54-21.15 89.54-18.3L89.54-18.3Q89.54-17.05 89.49-16.35L89.49-16.35 89.24-10Q89.14-8 89.14-7.55L89.14-7.55Q89.14-6.15 89.34-5.65 89.54-5.15 89.94-5.15L89.94-5.15Q90.79-5.15 91.97-6.85 93.14-8.55 94.24-11.25 95.34-13.95 95.99-16.75L95.99-16.75 96.69-19.7Q97.04-21.25 98.67-22.53 100.29-23.8 101.89-23.8L101.89-23.8Q102.89-23.8 102.89-23.15L102.89-23.15Q102.89-22.95 102.69-22.53 102.49-22.1 102.29-21.5L102.29-21.5Q101.64-19.85 100.89-16.3L100.89-16.3 98.24-3.3 97.74-0.9Q96.79 3.75 96.24 5.9 95.69 8.05 94.87 9.83 94.04 11.6 92.54 13.5L92.54 13.5Q90.04 16.6 87.14 18.28 84.24 19.95 81.54 19.95L81.54 19.95ZM112.39 0.5Q111.79 0.5 111.56 0.18 111.34-0.15 111.26-0.93 111.19-1.7 111.14-3.7L111.14-3.7Q110.99-8.15 110.79-10.95L110.79-10.95Q110.44-15.65 109.94-17.35 109.44-19.05 108.54-19.05L108.54-19.05Q107.39-19.05 106.44-16.8L106.44-16.8Q106.09-16 105.86-15.75 105.64-15.5 105.29-15.5L105.29-15.5Q104.74-15.5 104.74-16.35L104.74-16.35Q104.74-17.6 105.49-19.4 106.24-21.2 107.54-22.5 108.84-23.8 110.44-23.8L110.44-23.8Q112.69-23.8 113.74-21.23 114.79-18.65 115.24-13.85L115.24-13.85Q115.49-10.6 115.54-9.85L115.54-9.85Q115.54-8.85 115.69-7.25L115.69-7.25Q115.69-6.35 115.79-6.05 115.89-5.75 116.24-5.75L116.24-5.75Q117.14-5.75 118.39-7.5 119.64-9.25 120.54-11.68 121.44-14.1 121.44-16L121.44-16Q121.44-17.2 121.14-17.93 120.84-18.65 120.36-19.23 119.89-19.8 119.89-20.1L119.89-20.1Q119.89-20.75 120.51-21.63 121.14-22.5 122.01-23.15 122.89-23.8 123.54-23.8L123.54-23.8Q124.34-23.8 125.01-22.8 125.69-21.8 125.69-19.85L125.69-19.85Q125.69-16.2 123.31-11.38 120.94-6.55 117.74-3.03 114.54 0.5 112.39 0.5L112.39 0.5ZM132.13 0.5Q129.53 0.5 128.06-1.28 126.58-3.05 126.58-6.25L126.58-6.25Q126.58-10 128.51-14.13 130.44-18.25 133.41-21.03 136.38-23.8 139.38-23.8L139.38-23.8Q141.03-23.8 142.01-22.85 142.99-21.9 142.99-20.1L142.99-20.1Q142.99-17.85 141.53-15.48 140.09-13.1 137.56-11.08 135.03-9.05 131.88-7.8L131.88-7.8Q132.03-4.35 134.94-4.35L134.94-4.35Q136.53-4.35 137.96-5.35 139.38-6.35 140.49-8.05L140.49-8.05Q140.74-8.5 140.94-8.72 141.13-8.95 141.34-8.95L141.34-8.95Q141.63-8.95 141.74-8.75 141.84-8.55 141.84-8.05L141.84-8.05Q141.84-6.45 140.41-4.4 138.99-2.35 136.74-0.93 134.49 0.5 132.13 0.5L132.13 0.5ZM133.13-11.9Q134.24-11.9 135.38-12.68 136.53-13.45 137.28-14.7 138.03-15.95 138.03-17.4L138.03-17.4Q138.03-19.2 136.59-19.2L136.59-19.2Q135.03-19.2 133.78-17.25 132.53-15.3 132.19-12.05L132.19-12.05Q132.49-11.9 133.13-11.9L133.13-11.9ZM146.88 0.5Q146.03 0.5 146.03-0.1L146.03-0.1Q146.03-0.35 146.41-1.23 146.78-2.1 147.13-3.95L147.13-3.95 147.98-8.75Q149.33-16.45 149.38-17.75L149.38-17.75 149.38-18.2Q149.38-19.05 148.93-19.05L148.93-19.05Q147.98-19.05 146.33-16L146.33-16Q146.13-15.6 145.88-15.28 145.63-14.95 145.38-14.95L145.38-14.95Q144.88-14.95 144.88-15.8L144.88-15.8Q144.88-17.1 146.06-19.03 147.23-20.95 148.96-22.38 150.68-23.8 152.28-23.8L152.28-23.8Q154.43-23.8 154.43-20.95L154.43-20.95Q154.43-20.35 154.03-16.75L154.03-16.75 154.08-16.75Q156.18-20.45 158.06-22.13 159.93-23.8 161.83-23.8L161.83-23.8Q163.13-23.8 163.93-23.05 164.73-22.3 164.73-20.9L164.73-20.9Q164.73-19.55 164.11-18.25 163.48-16.95 162.58-16.13 161.68-15.3 161.03-15.3L161.03-15.3Q160.63-15.3 160.78-15.8L160.78-15.8Q160.93-16.5 160.93-17.1L160.93-17.1Q160.93-18.4 159.78-18.4L159.78-18.4Q157.88-18.4 156.01-15.8 154.13-13.2 153.08-8.3L153.08-8.3Q152.33-5.2 152.08-3.45L152.08-3.45Q151.83-2.05 150.11-0.78 148.38 0.5 146.88 0.5L146.88 0.5ZM167.18 0.5Q165.53 0.5 164.43-0.1 163.33-0.7 162.81-1.53 162.28-2.35 162.23-3.05L162.23-3.05Q162.08-3.95 162.68-4.93 163.28-5.9 164.33-6.7L164.33-6.7Q164.98-7.2 165.23-7.2L165.23-7.2Q165.43-7.2 165.61-6.98 165.78-6.75 165.93-6.4L165.93-6.4Q166.43-4.95 167.18-4.05 167.93-3.15 169.38-3.15L169.38-3.15Q170.58-3.15 171.36-3.8 172.13-4.45 172.13-5.5L172.13-5.5Q172.13-6.15 171.68-7.08 171.23-8 170.03-9.8L170.03-9.8 168.98-11.3Q167.63-13.3 167.16-14.28 166.68-15.25 166.68-16.25L166.68-16.25Q166.68-18.25 167.86-20 169.03-21.75 170.96-22.78 172.88-23.8 175.08-23.8L175.08-23.8Q177.03-23.8 178.33-23.03 179.63-22.25 179.63-20.95L179.63-20.95Q179.63-20 178.78-18.8L178.78-18.8Q178.13-18 177.73-18L177.73-18Q177.53-18 177.43-18.1 177.33-18.2 177.21-18.38 177.08-18.55 176.98-18.7L176.98-18.7Q175.83-20.35 173.98-20.35L173.98-20.35Q172.78-20.35 172.03-19.8 171.28-19.25 171.28-18.25L171.28-18.25Q171.28-17.5 171.68-16.82 172.08-16.15 172.93-15.1L172.93-15.1 173.78-14 174.93-12.5Q175.93-11.15 176.38-10.08 176.83-9 176.83-7.7L176.83-7.7Q176.83-5.3 175.31-3.43 173.78-1.55 171.51-0.53 169.23 0.5 167.18 0.5L167.18 0.5ZM186.28 0.5Q183.68 0.5 182.2-1.28 180.73-3.05 180.73-6.25L180.73-6.25Q180.73-10 182.65-14.13 184.58-18.25 187.55-21.03 190.53-23.8 193.53-23.8L193.53-23.8Q195.18-23.8 196.15-22.85 197.13-21.9 197.13-20.1L197.13-20.1Q197.13-17.85 195.68-15.48 194.23-13.1 191.7-11.08 189.18-9.05 186.03-7.8L186.03-7.8Q186.18-4.35 189.08-4.35L189.08-4.35Q190.68-4.35 192.1-5.35 193.53-6.35 194.63-8.05L194.63-8.05Q194.88-8.5 195.08-8.72 195.28-8.95 195.48-8.95L195.48-8.95Q195.78-8.95 195.88-8.75 195.98-8.55 195.98-8.05L195.98-8.05Q195.98-6.45 194.55-4.4 193.13-2.35 190.88-0.93 188.63 0.5 186.28 0.5L186.28 0.5ZM187.28-11.9Q188.38-11.9 189.53-12.68 190.68-13.45 191.43-14.7 192.18-15.95 192.18-17.4L192.18-17.4Q192.18-19.2 190.73-19.2L190.73-19.2Q189.18-19.2 187.93-17.25 186.68-15.3 186.33-12.05L186.33-12.05Q186.63-11.9 187.28-11.9L187.28-11.9Z" opacity="1" transform="matrix(1,0,0,1,0,0)" fill="#ffffff" class="wordmark-text-0" data-fill-palette-color="primary" id="text-0"></path></svg></g></svg></g></svg></g></svg></g><g><svg viewBox="0 0 89.5800709749958 99.01866937325552" height="99.01866937325552" width="89.5800709749958"><g><svg xmlns="http://www.w3.org/2000/svg" xmlns:xlink="http://www.w3.org/1999/xlink" version="1.1" x="0" y="0" viewBox="5.630000114440918 3.695000171661377 36.73899841308594 40.61000061035156" enable-background="new 0 0 48 48" xml:space="preserve" height="99.01866937325552" width="89.5800709749958" class="icon-icon-0" data-fill-palette-color="accent" id="icon-0"><path d="M5.63 44.305V12.293c1.331-0.887 2.784-1.537 4.321-1.965v25.953c0 0.242 0.173 0.449 0.411 0.492 4.828 0.871 9.036 3.543 11.867 7.447C17.158 41.209 10.737 41.195 5.63 44.305z" fill="#ffffff" data-fill-palette-color="accent"></path><path d="M42.369 44.305c-2.568-1.563-5.467-2.338-8.361-2.338-2.865 0-5.727 0.76-8.25 2.262 2.83-3.91 7.047-6.582 11.879-7.453 0.238-0.043 0.412-0.25 0.412-0.492V10.313c1.539 0.428 2.988 1.093 4.32 1.98V44.305z" fill="#ffffff" data-fill-palette-color="accent"></path><path d="M10.951 3.695v32.174c5.176 1.045 9.65 4.061 12.549 8.418v-31.27C20.852 8.204 16.306 4.834 10.951 3.695zM20.986 32.076c-0.098 0.1-0.226 0.148-0.354 0.148-0.127 0-0.255-0.049-0.353-0.146-1.897-1.885-4.13-3.32-6.637-4.264-0.259-0.096-0.39-0.385-0.292-0.643 0.097-0.26 0.386-0.391 0.644-0.293 2.641 0.994 4.993 2.504 6.991 4.49C21.18 31.564 21.181 31.881 20.986 32.076zM20.986 25.343c-0.098 0.099-0.226 0.146-0.354 0.146-0.127 0-0.255-0.049-0.353-0.145-1.899-1.887-4.132-3.322-6.637-4.263-0.259-0.097-0.389-0.386-0.292-0.644 0.098-0.259 0.385-0.389 0.644-0.293 2.638 0.991 4.99 2.502 6.991 4.49C21.18 24.828 21.181 25.145 20.986 25.343zM20.986 18.607c-0.098 0.099-0.226 0.146-0.354 0.146-0.127 0-0.255-0.049-0.353-0.146-1.898-1.886-4.132-3.321-6.637-4.263-0.259-0.097-0.39-0.385-0.292-0.644 0.098-0.259 0.387-0.39 0.644-0.292 2.639 0.992 4.991 2.502 6.991 4.489C21.18 18.095 21.181 18.411 20.986 18.607z" fill="#ffffff" data-fill-palette-color="accent"></path><path d="M24.5 13.018v31.27c2.898-4.357 7.373-7.373 12.549-8.418V9.681c0-0.008 0-0.014 0-0.021V3.695C31.693 4.834 27.148 8.204 24.5 13.018zM30.813 29.596c-1.113 0.715-2.155 1.551-3.092 2.482-0.098 0.098-0.225 0.146-0.354 0.146-0.128 0-0.257-0.049-0.354-0.148-0.195-0.195-0.194-0.512 0.002-0.707 0.986-0.982 2.082-1.861 3.258-2.615 0.23-0.15 0.541-0.082 0.689 0.15S31.045 29.445 30.813 29.596zM34.357 21.082c-2.504 0.94-4.736 2.374-6.637 4.263-0.098 0.097-0.225 0.146-0.354 0.146-0.128 0-0.257-0.049-0.354-0.146-0.195-0.197-0.194-0.514 0.002-0.707 2.002-1.988 4.354-3.499 6.99-4.49 0.256-0.096 0.547 0.034 0.645 0.293C34.746 20.696 34.615 20.985 34.357 21.082zM34.357 14.347c-2.504 0.941-4.738 2.376-6.637 4.263-0.098 0.097-0.225 0.146-0.354 0.146-0.128 0-0.257-0.049-0.354-0.147-0.195-0.196-0.194-0.513 0.002-0.707 2-1.987 4.354-3.498 6.99-4.489 0.256-0.098 0.547 0.033 0.645 0.292C34.748 13.964 34.615 14.25 34.357 14.347z" fill="#ffffff" data-fill-palette-color="accent"></path></svg></g></svg></g></svg></g></svg></g></svg></g></svg></g><defs></defs></svg><rect width="512" height="320" fill="none" stroke="none" visibility="hidden"></rect></g></svg></g></svg>